<svg enable-background="new 0 0 73.9 73.9" viewBox="0 0 73.9 73.9" xmlns="http://www.w3.org/2000/svg">
  <path d="m52.4 13.1h5.6v11.1h-5.6z" fill="none" transform="matrix(.7071 -.7071 .7071 .7071 2.9695 44.5346)" stroke="#1c2632" stroke-width="2"/>
  <path d="m47.9 18.2-26.3 26.2v7.9h7.9l26.3-26.3z" fill="none" stroke="#1c2632" stroke-width="2"/>
  <g fill="#1c2632">
    <path d="m47.2 16.1-27.3 27.2c-.2.2-.3.4-.3.7v9.3c0 .6.4 1 1 1h9.3c.3 0 .5-.1.7-.3l27.3-27.3 5.4-5.4c.4-.4.4-1 0-1.4l-9.3-9.3c-.4-.4-1-.4-1.4 0zm-17.7 36.2h-7.8v-7.9l26.3-26.3 7.8 7.8zm23.8-39.5 7.8 7.9-4 4-7.8-7.9z" stroke="#1c2632" stroke-width="2"/>
  </g>
</svg>
