<?xml version="1.0" standalone="no"?>
<!DOCTYPE svg PUBLIC "-//W3C//DTD SVG 20010904//EN"
 "http://www.w3.org/TR/2001/REC-SVG-20010904/DTD/svg10.dtd">
<svg version="1.0" xmlns="http://www.w3.org/2000/svg"
 width="200.000000pt" height="200.000000pt" viewBox="0 0 200.000000 200.000000"
 preserveAspectRatio="xMidYMid meet">

<g transform="translate(0.000000,200.000000) scale(0.100000,-0.100000)"
fill="#000000" stroke="none">
<path d="M315 1811 c-51 -23 -102 -74 -126 -126 -17 -38 -19 -78 -19 -685 0
-725 -3 -686 76 -762 74 -71 42 -68 756 -68 723 0 684 -3 760 76 71 74 68 42
68 754 0 712 3 680 -68 754 -76 79 -37 76 -762 76 -603 0 -648 -2 -685 -19z
m1327 -169 l23 -23 0 -619 0 -619 -23 -23 -23 -23 -619 0 -619 0 -23 23 -23
23 -2 607 c-3 651 -4 643 47 669 20 10 158 12 632 10 l607 -2 23 -23z"/>
<path d="M1265 1484 c-67 -35 -95 -79 -95 -152 0 -57 27 -104 79 -139 40 -27
117 -31 161 -8 116 60 116 234 0 293 -52 26 -103 28 -145 6z"/>
<path d="M688 1053 c-14 -16 -80 -101 -147 -191 -100 -135 -121 -169 -121
-197 0 -60 62 -100 113 -73 14 7 69 72 123 143 53 72 99 132 101 134 2 3 66
-58 143 -134 77 -77 149 -143 161 -147 50 -19 103 21 103 78 0 29 -10 45 -64
99 l-64 65 24 25 24 25 191 -190 c169 -168 195 -190 224 -190 45 0 81 38 81
87 0 36 -11 49 -228 265 -217 218 -229 228 -266 228 -33 0 -46 -8 -105 -65
l-67 -64 -64 64 c-55 56 -69 65 -100 65 -27 0 -43 -7 -62 -27z"/>
</g>
</svg>
