<?xml version="1.0" standalone="no"?>
<!DOCTYPE svg PUBLIC "-//W3C//DTD SVG 20010904//EN"
 "http://www.w3.org/TR/2001/REC-SVG-20010904/DTD/svg10.dtd">
<svg version="1.0" xmlns="http://www.w3.org/2000/svg"
 width="225.000000pt" height="225.000000pt" viewBox="0 0 225.000000 225.000000"
 preserveAspectRatio="xMidYMid meet">

<g transform="translate(0.000000,225.000000) scale(0.100000,-0.100000)"
fill="#2c3642" stroke="none">
<path d="M1572 1880 c0 -19 3 -55 7 -80 8 -42 9 -42 9 -10 0 19 -3 55 -7 80
-8 42 -9 42 -9 10z"/>
<path d="M417 1872 c-29 -30 -36 -86 -17 -123 28 -51 111 -60 157 -17 45 42
36 130 -16 158 -39 20 -95 12 -124 -18z m113 8 c39 -21 56 -79 35 -119 -40
-78 -156 -52 -163 37 -2 28 1 42 9 42 7 0 9 3 6 7 -9 9 13 34 24 27 5 -3 9 0
9 5 0 14 55 14 80 1z"/>
<path d="M466 1837 c3 -10 9 -15 12 -12 3 3 0 11 -7 18 -10 9 -11 8 -5 -6z"/>
<path d="M490 1810 c-8 -5 -12 -12 -9 -15 4 -3 12 1 19 10 14 17 11 19 -10 5z"/>
<path d="M1674 1844 c-9 -21 -24 -58 -34 -81 -32 -72 -11 -48 27 32 19 42 33
79 29 82 -3 3 -13 -11 -22 -33z"/>
<path d="M1450 1863 c0 -7 92 -143 97 -143 6 0 -17 40 -55 98 -34 50 -42 59
-42 45z"/>
<path d="M1821 1830 c-7 -4 -18 -47 -25 -94 l-11 -87 -65 -54 c-92 -77 -115
-89 -151 -76 -38 13 -147 99 -153 120 -2 9 -7 39 -11 66 -12 96 -15 105 -40
105 -29 0 -33 -12 -24 -75 4 -27 10 -71 14 -98 6 -44 11 -51 73 -98 62 -47 67
-54 74 -97 3 -26 7 -70 7 -99 l1 -51 -60 -7 c-65 -8 -64 -7 -74 -47 -5 -22 -3
-28 10 -28 10 0 35 -19 56 -42 35 -38 41 -41 49 -25 11 20 49 23 67 5 7 -7 12
-23 12 -37 0 -24 4 -26 45 -28 36 -2 45 2 50 18 10 29 -9 46 -108 96 -49 24
-87 46 -84 49 2 3 44 -14 92 -38 l86 -43 36 39 35 38 -7 137 -7 136 66 48 c36
27 66 52 66 55 0 4 7 47 14 97 7 49 11 95 9 102 -6 16 -27 23 -42 13z"/>
<path d="M848 1645 c25 -84 43 -113 23 -39 -5 22 -15 58 -21 82 -6 23 -15 42
-19 42 -5 0 3 -38 17 -85z"/>
<path d="M946 1713 c-10 -34 -27 -145 -23 -149 2 -2 11 32 21 77 10 45 15 83
13 86 -3 2 -8 -4 -11 -14z"/>
<path d="M1548 1685 c-70 -39 -41 -155 38 -155 46 0 63 9 80 42 40 77 -43 155
-118 113z m92 -105 c0 -18 -43 -28 -72 -18 -43 15 -33 28 22 28 28 0 50 -5 50
-10z"/>
<path d="M1029 1632 c-71 -77 -81 -95 -19 -35 35 34 62 65 59 67 -3 3 -21 -11
-40 -32z"/>
<path d="M582 1593 c-5 -10 -16 -51 -23 -92 -11 -62 -19 -82 -51 -118 -21 -24
-42 -52 -48 -62 -13 -25 -64 -45 -96 -37 -14 4 -37 18 -51 32 -25 25 -26 26
-68 9 -65 -24 -131 -72 -165 -118 -34 -47 -37 -59 -14 -78 14 -11 22 -6 61 39
39 45 115 102 136 102 4 0 7 -15 7 -33 0 -38 34 -167 56 -208 18 -36 38 -37
145 -3 l82 26 73 -51 c75 -52 101 -60 122 -39 29 29 13 56 -65 111 -118 82
-108 80 -203 51 -45 -14 -84 -24 -86 -21 -2 2 14 9 35 16 38 11 39 13 39 54 0
62 17 96 77 157 52 54 54 57 73 155 14 70 17 104 10 112 -15 18 -36 16 -46 -4z"/>
<path d="M775 1473 c-44 -23 -105 -84 -105 -105 0 -12 23 -33 65 -59 l65 -41
0 -98 0 -97 -30 -7 -31 -6 22 -30 c19 -25 21 -33 11 -55 -7 -14 -23 -30 -36
-37 -20 -9 -26 -20 -31 -62 -8 -67 6 -106 39 -106 33 0 38 10 56 115 l15 90
45 5 c25 3 65 3 90 0 l45 -5 14 -77 c7 -43 16 -78 20 -78 4 0 22 15 40 34 32
33 33 37 27 88 -6 46 -11 57 -37 72 -48 28 -58 59 -52 162 l6 91 63 39 c35 21
65 45 68 52 9 21 -10 47 -64 87 -53 39 -131 58 -144 36 -4 -6 -2 -11 3 -11 6
0 19 -8 29 -17 10 -10 37 -31 61 -46 l43 -28 -64 -45 c-78 -55 -101 -61 -142
-40 -42 23 -116 76 -116 84 0 4 17 18 37 32 21 14 45 33 55 43 10 9 23 17 29
17 5 0 7 5 4 10 -9 15 -66 11 -100 -7z"/>
<path d="M365 1462 c-22 -5 -55 -30 -55 -44 0 -12 38 -10 45 2 4 6 23 9 43 8
27 -2 37 1 37 11 0 16 -40 29 -70 23z"/>
<path d="M874 1460 c-85 -35 -60 -164 31 -164 72 0 111 84 63 138 -26 29 -63
39 -94 26z m61 -111 c0 -17 -6 -25 -22 -27 -17 -3 -23 2 -23 15 0 22 20 45 35
40 5 -2 10 -15 10 -28z"/>
<path d="M435 1420 c-8 -14 3 -30 21 -30 8 0 14 9 14 20 0 21 -24 28 -35 10z"/>
<path d="M362 1403 c2 -10 10 -18 18 -18 8 0 16 8 18 18 2 12 -3 17 -18 17
-15 0 -20 -5 -18 -17z"/>
<path d="M300 1376 c0 -41 41 -80 85 -80 29 0 43 7 61 28 29 33 31 56 5 56
-11 0 -21 6 -24 13 -3 8 -9 6 -19 -7 -10 -13 -21 -16 -36 -12 -12 4 -22 12
-22 17 0 5 -11 9 -25 9 -20 0 -25 -5 -25 -24z m122 -36 c-20 -16 -27 -17 -50
-7 l-26 12 39 6 c22 3 45 7 50 7 6 1 0 -7 -13 -18z"/>
<path d="M1254 1350 c-85 -35 -60 -164 31 -164 72 0 111 84 63 138 -26 29 -63
39 -94 26z m77 -90 c5 0 9 -9 9 -20 0 -17 -7 -20 -40 -20 -33 0 -40 3 -40 19
0 20 24 32 48 25 8 -2 18 -4 23 -4z"/>
<path d="M183 1210 c-40 -29 -60 -59 -65 -95 -2 -15 8 -25 39 -40 l42 -20 1
-111 c0 -72 4 -114 12 -122 14 -14 358 -17 358 -3 0 4 -5 22 -11 40 l-11 31
-134 0 -134 0 0 107 c0 124 -16 216 -41 231 -13 9 -25 5 -56 -18z"/>
<path d="M1697 1195 c-21 -25 -33 -46 -27 -50 5 -3 10 -19 10 -34 0 -26 3 -29
48 -34 41 -5 50 -3 70 19 30 34 29 83 -3 118 -33 36 -54 32 -98 -19z"/>
<path d="M487 1213 c-4 -3 -7 -22 -7 -41 0 -25 4 -33 14 -29 62 24 84 20 155
-31 67 -47 72 -49 106 -38 l35 11 0 67 0 68 -148 0 c-82 0 -152 -3 -155 -7z"/>
<path d="M1020 1190 c0 -25 4 -30 23 -30 28 0 47 -17 47 -44 0 -12 9 -3 23 25
14 27 36 51 58 61 l34 18 -92 0 -93 0 0 -30z"/>
<path d="M1149 1171 c-16 -16 -32 -43 -35 -60 -8 -41 -20 -39 -39 5 -20 48
-49 44 -53 -9 -4 -51 42 -100 90 -95 28 3 35 9 50 48 l17 45 0 -87 1 -87 -80
-68 c-64 -54 -80 -73 -80 -95 0 -41 26 -50 96 -32 43 12 67 13 91 6 60 -18 94
30 54 79 -18 23 -19 23 -47 5 -25 -15 -23 -12 8 18 47 45 81 46 126 5 19 -17
32 -32 29 -35 -2 -2 -10 2 -17 11 -18 22 -35 19 -54 -10 -21 -33 -20 -51 5
-68 15 -11 28 -12 52 -5 23 7 48 6 89 -5 31 -8 59 -12 62 -9 3 3 6 26 5 51 0
44 -3 48 -65 100 l-64 53 0 84 c0 46 2 84 5 84 2 0 9 -18 15 -40 19 -71 90
-65 134 12 16 29 19 41 10 55 -19 30 -47 22 -56 -15 -11 -42 -22 -38 -50 18
-13 25 -35 51 -49 59 -24 13 -31 13 -68 -3 -38 -18 -43 -18 -84 -2 -57 22 -64
21 -98 -13z"/>
<path d="M23 1067 l-21 -52 21 -12 c26 -14 41 -7 32 15 -3 9 -3 13 1 9 7 -7
23 22 38 69 5 15 1 19 -22 21 -24 2 -30 -4 -49 -50z m57 14 c0 -14 -18 -23
-30 -16 -6 4 -8 11 -5 16 8 12 35 12 35 0z"/>
<path d="M290 982 l0 -82 125 0 c69 0 125 3 125 8 0 4 -51 7 -112 7 l-113 0
-5 67 c-7 96 -20 96 -20 0z"/>
<path d="M1567 1035 c-15 -14 -17 -43 -17 -213 0 -110 5 -204 10 -212 6 -10
10 56 10 197 0 239 -1 236 76 227 21 -2 140 -11 264 -19 124 -8 241 -17 260
-19 26 -3 30 -2 15 4 -11 5 -126 16 -255 24 -129 9 -260 19 -291 22 -44 4 -59
2 -72 -11z"/>
<path d="M475 1016 l-70 -23 45 -11 c99 -26 92 -19 125 -125 17 -53 38 -104
47 -113 20 -20 63 -12 72 13 4 10 -8 64 -25 121 -31 97 -36 106 -75 133 -24
16 -44 29 -46 28 -2 0 -34 -11 -73 -23z"/>
<path d="M1592 1008 c-19 -19 -17 -422 2 -438 11 -8 46 -10 130 -4 l116 7 0
115 0 114 68 -6 c37 -4 82 -10 100 -13 l32 -5 0 -95 0 -95 88 7 c125 10 122 5
122 195 0 137 -2 159 -17 172 -14 12 -87 20 -313 37 -345 25 -313 24 -328 9z"/>
<path d="M1491 1001 c-7 -5 -16 -32 -19 -60 -4 -40 -1 -56 13 -71 10 -11 22
-20 27 -20 4 0 8 36 8 80 0 80 -3 87 -29 71z"/>
<path d="M820 908 c0 -5 39 -7 88 -7 91 2 81 6 -26 11 -34 2 -62 0 -62 -4z"/>
<path d="M678 903 c7 -3 16 -2 19 1 4 3 -2 6 -13 5 -11 0 -14 -3 -6 -6z"/>
<path d="M810 866 c0 -13 -3 -31 -6 -40 -5 -14 7 -16 101 -16 94 0 106 2 101
16 -3 9 -6 27 -6 40 0 24 -1 24 -95 24 -94 0 -95 0 -95 -24z"/>
<path d="M1263 863 c-9 -3 -8 -11 4 -30 l17 -25 18 22 c10 12 15 26 12 31 -6
10 -31 11 -51 2z"/>
<path d="M248 783 c6 -2 18 -2 25 0 6 3 1 5 -13 5 -14 0 -19 -2 -12 -5z"/>
<path d="M1858 648 l-3 -131 -39 -14 c-83 -28 -98 -74 -36 -105 67 -34 268
-18 336 26 13 9 24 12 24 6 0 -5 -17 -18 -37 -29 -106 -53 -297 -54 -357 -3
-18 16 -18 16 -8 -5 17 -32 76 -48 177 -47 96 2 188 28 217 62 18 21 22 70 7
88 -5 7 -32 18 -60 25 l-49 13 0 116 0 117 -61 7 c-119 12 -108 25 -111 -126z"/>
</g>
</svg>
