<?xml version="1.0" standalone="no"?>
<!DOCTYPE svg PUBLIC "-//W3C//DTD SVG 20010904//EN"
 "http://www.w3.org/TR/2001/REC-SVG-20010904/DTD/svg10.dtd">
<svg version="1.0" xmlns="http://www.w3.org/2000/svg"
 width="256.000000pt" height="256.000000pt" viewBox="0 0 256.000000 256.000000"
 preserveAspectRatio="xMidYMid meet">

<g transform="translate(0.000000,256.000000) scale(0.100000,-0.100000)"
fill="#2c3642" stroke="none">
<path d="M675 2471 c-38 -17 -67 -58 -72 -104 l-5 -45 -88 -4 c-95 -3 -122
-15 -164 -72 -21 -27 -21 -37 -24 -817 l-2 -789 -109 0 c-83 0 -111 -3 -121
-15 -8 -10 -11 -45 -8 -109 2 -76 7 -100 24 -122 39 -53 70 -68 144 -72 l70
-4 0 -107 c0 -70 4 -111 12 -119 9 -9 169 -12 660 -12 l648 0 0 40 0 40 -620
0 -620 0 0 80 0 80 321 0 320 0 -3 31 c-3 30 -8 33 -103 71 -55 22 -111 49
-124 61 -30 28 -51 77 -51 122 l0 35 -180 0 -180 0 0 640 0 640 880 0 c873 0
880 0 880 -20 0 -17 7 -20 40 -20 l40 0 0 154 c0 85 -4 166 -10 180 l-10 26
59 0 c49 0 65 -4 90 -26 l31 -26 0 -254 0 -254 40 0 40 0 0 258 c0 247 -1 258
-23 296 -14 25 -39 48 -66 63 -42 22 -54 23 -236 23 l-192 0 -6 46 c-7 69 -51
109 -117 109 -66 0 -110 -40 -117 -109 l-6 -46 -437 0 -437 0 -6 46 c-6 60
-47 104 -103 110 -21 2 -48 0 -59 -5z m74 -85 c8 -9 11 -48 9 -111 -2 -80 -6
-100 -20 -109 -13 -8 -23 -8 -35 0 -15 9 -19 29 -21 109 -3 101 4 125 38 125
10 0 23 -6 29 -14z m1120 0 c8 -9 11 -48 9 -111 -2 -80 -6 -100 -20 -109 -13
-8 -23 -8 -35 0 -15 9 -19 29 -21 109 -3 101 4 125 38 125 10 0 23 -6 29 -14z
m-309 -266 l0 -40 -280 0 -280 0 0 40 0 40 280 0 280 0 0 -40z"/>
<path d="M492 1828 c-17 -17 -17 -279 0 -296 17 -17 279 -17 296 0 17 17 17
279 0 296 -8 8 -56 12 -148 12 -92 0 -140 -4 -148 -12z m228 -148 l0 -80 -80
0 -80 0 0 80 0 80 80 0 80 0 0 -80z"/>
<path d="M1291 1829 c-84 -16 -188 -74 -256 -142 -163 -164 -200 -406 -92
-611 39 -75 136 -175 202 -208 l49 -26 -44 -6 c-73 -12 -169 -46 -200 -72 -53
-45 -92 -169 -59 -189 5 -4 8 -19 4 -34 -5 -23 -2 -28 28 -39 43 -15 47 -15
47 2 0 24 16 27 54 11 20 -8 52 -22 72 -30 31 -13 34 -17 24 -35 -10 -18 -7
-22 26 -36 37 -15 45 -13 57 19 1 5 35 -4 74 -20 66 -25 71 -29 67 -53 -5 -21
0 -27 27 -37 33 -13 41 -9 52 21 2 5 36 -3 75 -19 65 -25 72 -31 70 -53 -2
-20 4 -28 30 -39 31 -13 34 -12 39 7 7 25 10 25 88 -6 58 -23 65 -29 63 -51
-2 -19 4 -27 29 -38 32 -14 33 -13 48 15 10 20 23 30 38 30 37 1 101 35 134
73 38 43 47 76 63 217 6 58 15 117 20 131 4 14 91 133 192 265 101 131 187
244 191 251 4 7 -5 21 -24 34 l-31 22 -22 -28 -23 -29 -179 131 c-98 72 -187
138 -197 145 -17 13 -18 17 -4 50 8 19 19 38 24 41 6 4 90 -50 189 -119 l179
-125 22 28 c13 15 23 30 23 33 0 3 -83 63 -184 134 l-185 129 23 35 c12 20 27
37 32 39 5 2 77 -42 159 -97 l150 -100 22 27 c13 16 23 30 23 33 0 3 -68 50
-150 104 -83 54 -150 103 -150 108 0 5 7 19 15 32 15 23 15 25 -15 46 -17 12
-35 19 -39 14 -52 -60 -159 -228 -209 -328 l-39 -78 -12 47 c-32 129 -141 264
-259 324 -109 55 -235 73 -351 50z m4 -161 c61 -50 64 -55 62 -92 -2 -37 -7
-43 -79 -93 -75 -53 -78 -54 -116 -43 -35 11 -40 17 -65 84 -15 39 -27 76 -27
82 0 20 124 112 153 114 5 0 37 -24 72 -52z m318 36 c50 -26 117 -85 117 -102
0 -9 -12 -47 -27 -84 -24 -61 -30 -69 -62 -78 -34 -9 -41 -7 -118 45 -80 53
-83 57 -82 93 0 33 7 43 62 89 34 29 66 52 70 52 4 1 22 -6 40 -15z m-447
-356 c6 -7 24 -53 39 -102 26 -88 26 -89 7 -115 -23 -31 -48 -39 -128 -40
l-61 -1 -21 48 c-26 57 -47 140 -38 150 4 3 33 23 64 44 45 30 64 37 91 33 19
-2 40 -10 47 -17z m611 -19 c35 -23 63 -44 63 -48 -1 -26 -24 -104 -42 -143
-21 -46 -23 -48 -62 -47 -85 1 -128 13 -149 40 l-19 27 32 97 c33 98 45 113
94 114 11 1 48 -18 83 -40z m-256 -241 c23 -29 23 -47 1 -128 -21 -72 -28 -77
-118 -79 -103 -2 -109 2 -128 82 -20 89 -20 93 2 122 16 23 23 24 120 25 96 0
105 -2 123 -22z m179 -227 c-8 -16 -21 -21 -53 -21 l-42 0 50 29 c51 30 64 27
45 -8z m-495 -183 c15 -40 31 -77 36 -82 5 -5 21 -3 39 4 36 15 36 22 1 108
l-21 53 37 -3 c36 -3 38 -5 68 -80 17 -42 34 -80 37 -84 11 -10 68 17 68 32 0
7 -11 39 -25 70 -14 31 -25 58 -25 61 0 2 17 3 37 1 36 -3 38 -5 68 -80 17
-42 34 -80 37 -84 4 -4 21 -1 39 6 35 15 35 22 1 108 l-22 52 50 0 50 0 0 -34
c0 -18 6 -38 13 -44 24 -20 302 -123 319 -118 10 2 18 -1 18 -7 -1 -42 -30
-208 -39 -226 -17 -30 -70 -61 -106 -61 -28 0 -899 341 -919 360 -17 16 33 77
77 95 43 17 117 34 128 29 3 -2 18 -36 34 -76z"/>
<path d="M492 1428 c-17 -17 -17 -279 0 -296 17 -17 279 -17 296 0 17 17 17
279 0 296 -8 8 -56 12 -148 12 -92 0 -140 -4 -148 -12z m228 -148 l0 -80 -80
0 -80 0 0 80 0 80 80 0 80 0 0 -80z"/>
<path d="M492 1028 c-17 -17 -17 -279 0 -296 17 -17 279 -17 296 0 17 17 17
279 0 296 -17 17 -279 17 -296 0z m228 -148 l0 -80 -80 0 -80 0 0 80 0 80 80
0 80 0 0 -80z"/>
<path d="M2201 522 c-6 -20 -9 -37 -7 -39 2 -2 43 -15 92 -29 49 -14 110 -31
136 -39 l47 -14 10 37 c6 20 9 37 7 39 -2 2 -43 15 -92 29 -49 14 -110 31
-136 39 l-47 14 -10 -37z"/>
<path d="M2246 371 c-2 -9 -7 -26 -11 -38 -6 -23 -16 -19 182 -77 l52 -15 10
37 c6 20 9 37 7 39 -2 2 -55 18 -119 37 -103 29 -117 31 -121 17z"/>
<path d="M2281 179 c-13 -38 -10 -45 26 -52 16 -4 58 -15 95 -26 l67 -19 10
36 c6 20 9 37 7 39 -5 5 -170 53 -183 53 -6 0 -16 -14 -22 -31z"/>
</g>
</svg>
