<?xml version="1.0" standalone="no"?>
<!DOCTYPE svg PUBLIC "-//W3C//DTD SVG 20010904//EN"
 "http://www.w3.org/TR/2001/REC-SVG-20010904/DTD/svg10.dtd">
<svg version="1.0" xmlns="http://www.w3.org/2000/svg"
 width="200.000000pt" height="200.000000pt" viewBox="0 0 200.000000 200.000000"
 preserveAspectRatio="xMidYMid meet">

<g transform="translate(0.000000,200.000000) scale(0.100000,-0.100000)"
fill="#2c3642" stroke="none">
<path d="M1482 1810 c-41 -25 -72 -76 -72 -118 0 -156 202 -207 270 -68 15 33
20 56 16 79 -20 104 -129 159 -214 107z"/>
<path d="M1919 1530 c-10 -6 -19 -29 -23 -57 -11 -73 -36 -143 -52 -143 -12 0
-44 39 -119 148 -15 21 -22 22 -167 22 -173 0 -214 -12 -264 -77 -55 -72 -78
-212 -55 -332 13 -64 52 -89 86 -54 15 14 16 29 10 99 -7 88 6 178 30 210 13
17 14 5 15 -103 0 -106 -2 -123 -16 -123 -12 0 -14 -7 -9 -28 8 -36 -26 -82
-61 -82 -29 0 -64 33 -64 61 0 53 -28 0 -66 -127 -52 -168 -54 -204 -18 -233
33 -26 64 -27 96 -1 19 14 34 48 59 134 l34 116 118 0 117 0 0 -274 c0 -304 1
-309 67 -322 27 -5 37 -1 63 24 l30 30 0 438 0 438 28 -28 c36 -33 91 -50 124
-37 56 21 96 101 114 224 5 38 3 52 -11 67 -20 22 -41 25 -66 10z m-336 -102
c8 -29 1 -38 -29 -38 -26 0 -40 20 -30 45 9 24 53 19 59 -7z m-3 -65 c0 -5 7
-53 15 -108 20 -134 19 -145 -14 -183 l-28 -33 -31 38 -30 38 14 105 c20 149
20 150 49 150 14 0 25 -3 25 -7z"/>
<path d="M735 1250 c-16 -4 -23 -8 -15 -9 13 -1 13 -3 1 -10 -8 -5 -12 -18 -8
-30 3 -14 0 -21 -10 -21 -8 0 -11 -4 -8 -10 3 -5 1 -10 -5 -10 -6 0 -10 -10
-8 -22 4 -28 48 -39 168 -39 47 0 112 -4 145 -9 46 -7 20 -8 -115 -6 -96 1
-165 0 -152 -3 13 -3 -56 -6 -153 -6 -188 0 -195 -2 -195 -52 0 -13 -6 -23
-12 -23 -9 0 -8 -4 2 -10 13 -8 12 -10 -2 -10 -11 0 -18 -8 -18 -20 0 -19 10
-24 70 -33 20 -4 19 -5 -7 -6 -22 -1 -33 -6 -33 -16 0 -8 4 -15 8 -15 12 0 8
-54 -5 -68 -7 -7 -13 -22 -13 -33 0 -10 -4 -19 -10 -19 -5 0 -10 -13 -10 -29
0 -20 6 -30 20 -34 14 -3 20 -14 20 -31 0 -14 1 -27 3 -28 1 0 72 -4 157 -8
l155 -7 -172 1 c-167 1 -172 1 -176 -20 -2 -11 1 -21 7 -22 6 -1 74 -6 151
-11 l140 -10 -156 4 c-155 4 -157 4 -161 -18 -4 -21 0 -22 71 -27 42 -2 105
-4 141 -4 36 1 151 2 255 3 127 1 185 4 175 11 -13 8 -13 10 1 10 9 0 19 -7
23 -15 6 -16 -52 -18 -461 -20 -85 0 -146 -4 -140 -8 7 -6 4 -6 -7 -3 -84 28
-147 38 -161 26 -32 -26 -18 -50 48 -80 l62 -28 -40 -7 c-64 -11 -196 -44
-247 -62 -51 -18 -60 -29 -51 -63 5 -20 10 -22 57 -16 28 4 89 16 135 27 46
10 86 17 89 15 2 -3 -8 -8 -22 -12 -20 -5 -26 -12 -24 -28 3 -18 12 -22 68
-29 68 -8 274 -3 303 9 23 8 22 44 0 45 -16 0 -15 1 2 8 32 13 -33 21 -169 21
-113 1 -119 2 -88 15 22 10 32 21 32 36 0 18 -4 20 -27 15 -16 -3 -22 -3 -15
0 6 3 9 11 5 17 -4 7 0 8 13 3 41 -16 187 -56 204 -56 21 0 31 20 25 50 -3 18
-2 20 10 10 8 -7 21 -10 30 -7 12 5 14 -4 12 -46 l-2 -52 45 -7 c58 -8 261 -9
320 0 39 6 45 11 48 33 l3 26 -63 -9 c-64 -10 -335 -5 -345 6 -13 13 5 14 97
5 99 -10 283 -3 312 12 13 7 15 5 11 -11 -5 -17 0 -20 31 -20 29 0 36 -4 36
-20 0 -15 -7 -20 -28 -20 -26 0 -29 -3 -28 -32 1 -28 5 -34 31 -39 39 -9 281
-9 320 0 32 7 46 38 24 52 -16 10 -1 16 46 21 22 2 31 9 33 26 2 12 -2 22 -8
22 -6 0 -9 4 -6 9 8 13 -57 21 -194 22 -88 1 -115 4 -90 10 24 5 4 7 -62 5
-54 -1 -98 2 -98 6 0 12 181 10 240 -3 28 -6 54 -8 57 -5 4 3 -9 9 -28 13 -32
6 -33 7 -9 13 15 3 26 14 28 25 3 19 -5 20 -137 23 -138 3 -139 3 -143 -19 -5
-33 -42 -40 -218 -41 -166 -1 -220 5 -220 27 0 9 -14 15 -37 18 l-38 4 38 1
c30 2 37 6 37 22 0 14 5 18 17 13 11 -4 12 -8 5 -11 -7 -2 -12 -14 -12 -27 0
-30 27 -35 210 -35 184 0 210 4 210 36 0 16 -6 24 -17 25 -15 0 -15 2 2 8 11
5 22 4 23 0 4 -10 244 -12 280 -3 16 5 22 14 22 34 0 16 -7 30 -15 34 -8 3
-15 1 -15 -3 0 -5 6 -12 13 -14 6 -3 -8 -5 -33 -5 -28 1 -34 3 -17 5 20 3 27
10 27 28 l0 23 -187 -1 c-102 -1 -168 1 -147 5 21 4 103 7 182 7 149 1 182 8
182 41 0 31 -35 41 -138 40 -132 -2 -220 2 -169 7 29 3 37 8 37 25 0 15 -4 18
-17 14 -9 -4 -76 -9 -147 -11 l-131 -4 124 9 c140 10 151 13 151 38 0 17 -10
17 -160 14 -89 -3 -160 0 -160 4 0 5 48 8 108 6 59 -2 134 1 167 5 50 7 61 12
63 29 3 20 -1 20 -151 18 -126 -1 -159 -5 -180 -19 -21 -13 -56 -18 -169 -21
-94 -3 -136 -1 -123 5 11 5 61 10 111 10 50 1 112 4 138 7 40 6 46 10 46 30 0
16 -6 24 -17 25 -11 0 -13 3 -5 6 6 2 12 19 11 36 0 18 -3 26 -6 20 -8 -22
-20 -14 -16 10 l5 24 -172 -3 c-95 -2 -169 0 -166 3 9 10 340 21 346 12 3 -4
23 -9 45 -12 l40 -4 -42 -1 c-40 -2 -41 -3 -30 -27 12 -25 14 -25 137 -25 170
0 200 6 200 37 0 21 -4 24 -22 20 -13 -3 -72 -8 -133 -11 l-110 -5 100 10
c145 14 145 14 145 49 0 17 5 30 10 30 6 0 10 9 10 20 0 12 -7 20 -17 20 -15
0 -16 2 -3 10 13 8 13 10 -1 10 -12 0 -15 7 -12 25 4 20 0 25 -23 32 l-29 7
35 6 c37 5 54 35 28 51 -10 7 -10 9 2 10 8 1 2 5 -15 9 -16 4 -93 8 -170 8
-77 0 -153 -4 -170 -8z m98 -27 c-13 -2 -35 -2 -50 0 -16 2 -5 4 22 4 28 0 40
-2 28 -4z m205 0 c-16 -2 -40 -2 -55 0 -16 2 -3 4 27 4 30 0 43 -2 28 -4z
m-255 -50 c-7 -2 -21 -2 -30 0 -10 3 -4 5 12 5 17 0 24 -2 18 -5z m155 -10
c-16 -2 -40 -2 -55 0 -16 2 -3 4 27 4 30 0 43 -2 28 -4z m-155 -10 c-13 -2
-33 -2 -45 0 -13 2 -3 4 22 4 25 0 35 -2 23 -4z m245 0 c-10 -2 -28 -2 -40 0
-13 2 -5 4 17 4 22 1 32 -1 23 -4z m25 -50 c-7 -2 -21 -2 -30 0 -10 3 -4 5 12
5 17 0 24 -2 18 -5z m-115 -68 c93 1 130 -2 102 -6 -25 -4 -93 -8 -152 -8 -75
-1 -108 -5 -111 -13 -3 -7 -6 -3 -6 9 -1 12 -4 30 -7 40 -5 16 -4 16 11 -2 15
-18 28 -20 163 -20z m-485 8 c-7 -2 -21 -2 -30 0 -10 3 -4 5 12 5 17 0 24 -2
18 -5z m280 0 c-7 -2 -21 -2 -30 0 -10 3 -4 5 12 5 17 0 24 -2 18 -5z m-140
-10 c-7 -2 -21 -2 -30 0 -10 3 -4 5 12 5 17 0 24 -2 18 -5z m-170 -40 c-7 -2
-19 -2 -25 0 -7 3 -2 5 12 5 14 0 19 -2 13 -5z m285 -70 c-10 -2 -26 -2 -35 0
-10 3 -2 5 17 5 19 0 27 -2 18 -5z m-140 -10 c-10 -2 -26 -2 -35 0 -10 3 -2 5
17 5 19 0 27 -2 18 -5z m-65 -40 c-13 -2 -35 -2 -50 0 -16 2 -5 4 22 4 28 0
40 -2 28 -4z m215 0 c-15 -2 -42 -2 -60 0 -18 2 -6 4 27 4 33 0 48 -2 33 -4z
m-283 -53 c-11 -5 -27 -9 -35 -9 -13 -1 -13 0 0 9 8 5 24 9 35 9 l20 0 -20 -9z
m145 -63 c104 -1 139 -3 105 -8 -106 -15 -342 -6 -313 12 7 5 22 6 33 2 11 -3
90 -6 175 -6z m183 6 c-21 -8 -15 -23 10 -24 20 -1 20 -2 2 -6 -25 -7 -38 -25
-23 -34 19 -12 -194 -21 -277 -12 -78 9 -76 9 60 10 182 0 205 5 205 44 0 21
5 29 18 28 10 0 12 -3 5 -6z m24 -64 c5 -20 11 -21 109 -17 60 2 99 -1 94 -6
-5 -5 -50 -8 -101 -7 -67 2 -94 -1 -100 -11 -6 -9 -9 -5 -9 13 0 14 -5 30 -12
37 -9 9 -9 12 1 12 7 0 15 -9 18 -21z m246 -36 c-7 -2 -19 -2 -25 0 -7 3 -2 5
12 5 14 0 19 -2 13 -5z m320 0 c-7 -2 -19 -2 -25 0 -7 3 -2 5 12 5 14 0 19 -2
13 -5z m-120 -10 c-29 -2 -77 -2 -105 0 -29 2 -6 3 52 3 58 0 81 -1 53 -3z
m-466 -9 c-3 -3 -12 -4 -19 -1 -8 3 -5 6 6 6 11 1 17 -2 13 -5z m20 -20 c-3
-3 -12 -4 -19 -1 -8 3 -5 6 6 6 11 1 17 -2 13 -5z m187 -6 c-4 -6 -10 -23 -13
-37 l-6 -26 -100 6 -100 5 98 2 c90 2 97 3 97 22 0 18 -7 20 -67 22 l-68 2 80
6 c44 3 81 7 83 8 2 1 0 -3 -4 -10z m-227 -48 c3 -10 2 -11 -4 -3 -4 6 -22 13
-38 16 -27 4 -27 5 4 3 21 0 36 -7 38 -16z m436 13 c-13 -2 -35 -2 -50 0 -16
2 -5 4 22 4 28 0 40 -2 28 -4z m50 -50 c-34 -2 -93 -2 -130 0 -37 2 -9 3 62 3
72 0 102 -1 68 -3z m-944 -29 c14 -12 -19 -1 -35 12 -18 14 -18 14 6 3 14 -6
27 -13 29 -15z m778 10 c-3 -3 -12 -4 -19 -1 -8 3 -5 6 6 6 11 1 17 -2 13 -5z
m-717 -34 c8 -5 11 -10 5 -10 -5 0 -17 5 -25 10 -8 5 -10 10 -5 10 6 0 17 -5
25 -10z m413 3 c-13 -2 -33 -2 -45 0 -13 2 -3 4 22 4 25 0 35 -2 23 -4z m260
0 c-13 -2 -33 -2 -45 0 -13 2 -3 4 22 4 25 0 35 -2 23 -4z m175 -20 c-16 -2
-40 -2 -55 0 -16 2 -3 4 27 4 30 0 43 -2 28 -4z m-643 -13 c3 -6 -1 -7 -9 -4
-18 7 -21 14 -7 14 6 0 13 -4 16 -10z m-38 -26 c-3 -3 -12 -4 -19 -1 -8 3 -5
6 6 6 11 1 17 -2 13 -5z m40 -10 c-3 -3 -12 -4 -19 -1 -8 3 -5 6 6 6 11 1 17
-2 13 -5z m636 -31 c-7 -2 -19 -2 -25 0 -7 3 -2 5 12 5 14 0 19 -2 13 -5z
m-38 -13 c3 -5 1 -10 -4 -10 -6 0 -11 5 -11 10 0 6 2 10 4 10 3 0 8 -4 11 -10z
m-888 -6 c-3 -3 -12 -4 -19 -1 -8 3 -5 6 6 6 11 1 17 -2 13 -5z m-40 -10 c-3
-3 -12 -4 -19 -1 -8 3 -5 6 6 6 11 1 17 -2 13 -5z m1021 -1 c-10 -2 -28 -2
-40 0 -13 2 -5 4 17 4 22 1 32 -1 23 -4z m235 0 c-13 -2 -33 -2 -45 0 -13 2
-3 4 22 4 25 0 35 -2 23 -4z m-1296 -9 c-3 -3 -12 -4 -19 -1 -8 3 -5 6 6 6 11
1 17 -2 13 -5z m-50 -10 c-3 -3 -12 -4 -19 -1 -8 3 -5 6 6 6 11 1 17 -2 13 -5z
m-54 -11 c-7 -2 -21 -2 -30 0 -10 3 -4 5 12 5 17 0 24 -2 18 -5z m1240 0 c-23
-2 -64 -2 -90 0 -26 2 -7 3 42 3 50 0 71 -1 48 -3z m120 -10 c-7 -2 -19 -2
-25 0 -7 3 -2 5 12 5 14 0 19 -2 13 -5z m-941 -20 c-40 -2 -103 -2 -140 0 -37
2 -4 3 73 3 77 0 107 -2 67 -3z m671 -10 c-13 -2 -33 -2 -45 0 -13 2 -3 4 22
4 25 0 35 -2 23 -4z m245 0 c-10 -2 -28 -2 -40 0 -13 2 -5 4 17 4 22 1 32 -1
23 -4z"/>
<path d="M1030 909 c-41 -5 -114 -6 -161 -3 l-86 6 4 -29 5 -28 121 3 c67 1
141 5 165 8 36 4 42 8 42 30 0 13 -3 23 -7 23 -5 -1 -42 -6 -83 -10z"/>
<path d="M640 274 c0 -30 39 -36 239 -34 192 2 213 0 151 -11 -58 -10 -261
-10 -323 0 -48 8 -48 8 -45 -18 3 -22 9 -27 48 -33 58 -8 262 -8 320 0 42 7
45 9 48 40 2 18 -1 32 -7 32 -6 0 -11 10 -11 23 l0 22 -210 0 c-208 0 -210 0
-210 -21z"/>
</g>
</svg>
