<?xml version="1.0" encoding="UTF-8" standalone="no"?>
<svg
   width="572.61053"
   height="700"
   viewBox="0 0 572.61052 700"
   version="1.1"
   id="svg828"
   sodipodi:docname="Logo Cercle Bruges KSV - 2022.svg"
   inkscape:version="1.1.1 (c3084ef, 2021-09-22)"
   xmlns:inkscape="http://www.inkscape.org/namespaces/inkscape"
   xmlns:sodipodi="http://sodipodi.sourceforge.net/DTD/sodipodi-0.dtd"
   xmlns="http://www.w3.org/2000/svg"
   xmlns:svg="http://www.w3.org/2000/svg">
  <defs
     id="defs832" />
  <sodipodi:namedview
     id="namedview830"
     pagecolor="#ffffff"
     bordercolor="#666666"
     borderopacity="1.0"
     inkscape:pageshadow="2"
     inkscape:pageopacity="0.0"
     inkscape:pagecheckerboard="0"
     showgrid="false"
     inkscape:zoom="0.5855728"
     inkscape:cx="35.862321"
     inkscape:cy="252.74398"
     inkscape:window-width="1440"
     inkscape:window-height="900"
     inkscape:window-x="0"
     inkscape:window-y="0"
     inkscape:window-maximized="0"
     inkscape:current-layer="svg828" />
  <path
     id="path943"
     style="stroke-width:8.75;fill:#00d719;fill-opacity:1"
     d="M 410.64844 0 L 351.25391 105.17578 L 256.99023 136.5 L 238.20312 21.875 L 181.41602 40.748047 L 201.25195 160.67578 A 66.5 66.5 0 0 0 176.75195 134.35547 L 148.97852 189.7793 C 151.58602 192.78055 168.85852 208.94156 148.32227 249.88281 C 131.55727 283.29031 111.26609 285.22461 95.621094 277.34961 A 64.63625 64.63625 0 0 1 86.162109 271.63477 C 74.288359 263.02477 61.655 243.87031 80.84375 205.63281 C 100.995 165.46156 120.69867 171.00148 124.95117 172.64648 L 152.75 117.25 C 134.12125 103.25 89.304609 92.391563 45.318359 180.10156 L 41.730469 187.25 C -0.70703147 271.81 32.001172 309.75062 55.451172 326.07812 A 111.9475 111.9475 0 0 0 71.095703 335.37891 A 73.05375 73.05375 0 0 0 97.275391 343.07812 C 78.471641 348.42438 72.679688 364.18367 74.429688 381.26367 C 64.594687 367.28992 45.283047 351.78445 21.841797 361.25195 C 0.39554665 369.9407 -7.4260156 391.50945 8.2714844 430.37695 L 61.916016 563.21094 L 195.12695 532.49023 L 288.75195 573.62305 L 276.50195 592.32227 L 174.21484 547.40039 L 152.73242 580.65039 L 254.98633 625.625 L 244.12695 642.77539 L 139.88867 596.92578 L 118.31836 630.40234 L 276.55469 700 L 347.56836 589.58398 A 65.87 65.87 0 0 0 347.05273 632.45898 L 404.13867 608.23047 C 404.09492 604.25797 401.40016 580.75508 443.56641 562.86133 C 477.97141 548.25758 494.67406 559.94789 501.50781 576.05664 A 64.75 64.75 0 0 1 505.00781 586.55664 C 508.47281 600.81039 505.69141 623.58633 466.31641 640.29883 C 424.94641 657.86883 413.51766 640.87664 411.34766 636.86914 L 354.26367 661.09766 C 359.43492 683.78641 386.5418 721.1043 476.8418 682.7793 L 484.20117 679.65625 C 571.32492 642.67875 570.95773 592.60211 563.67773 564.94336 L 563.68555 564.92578 A 111.67625 111.67625 0 0 0 557.78711 547.71484 C 547.61961 523.75734 524.75586 500.57094 477.50586 507.05469 C 441.07961 512.05969 418.54883 540.77602 350.29883 540.25977 A 190.5925 190.5925 0 0 1 202.91406 469.58594 L 202.85352 469.58594 L 143.79102 483.76953 L 122.50977 431.07812 C 113.53227 408.83562 119.8682 398.58047 138.0332 394.51172 L 163.81836 388.60547 A 182.14 182.14 0 0 1 159.94336 351.32031 A 190.63625 190.63625 0 0 1 350.29883 162.5918 C 378.25508 162.5918 400.26195 168.32422 434.87695 180.57422 L 494.20117 202.70312 L 514.10742 167.24805 L 405.79102 126.875 L 416.92969 107.48438 L 521.60742 146.50195 L 541.13672 112.04297 L 436.46094 73.027344 L 446.3125 55.255859 L 553.00195 95.025391 L 572.61133 60.375 L 410.64844 0 z M 63.138672 414.46289 C 68.991602 414.42803 75.299453 418.03945 79.486328 428.4082 L 105.45703 492.7207 L 78.121094 498.86328 L 52.466797 435.35547 C 47.846797 423.93672 50.926953 418.26836 57.533203 415.59961 C 59.287578 414.89305 61.187695 414.47451 63.138672 414.46289 z " />
  <path
     style="stroke-width:8.75;fill:#00d719;fill-opacity:1"
     d="m 274.19177,376.71375 29.9425,-92.155 h 96.8975 l 29.9425,92.155 -78.39125,56.95375 z"
     id="path824" />
</svg>
