<?xml version="1.0" encoding="utf-8"?>
<!-- Generator: Adobe Illustrator 25.0.1, SVG Export Plug-In . SVG Version: 6.00 Build 0)  -->
<svg version="1.0" id="Layer_1" xmlns="http://www.w3.org/2000/svg" xmlns:xlink="http://www.w3.org/1999/xlink" x="0px" y="0px"
	 viewBox="0 0 1264.2 870.5" style="enable-background:new 0 0 1264.2 870.5;" xml:space="preserve">
<style type="text/css">
	.st0{fill:#FFFFFF;}
	.st1{fill:#D1D2D3;}
	.st2{fill:#5EAF46;}
	.st3{fill:#D71920;}
</style>
<path d="M929.7,316.1c-38.9-50.2-90.5-104.8-145.5-153.7C695.6,83.5,648.6,75,632.5,75h-0.9c-16.1,0-63.1,8.5-151.7,87.4
	c-54.9,48.9-106.6,103.5-145.5,153.7c-28.5,36.8-62.4,87.4-62.4,119.2s34,82.4,62.5,119.2c38.9,50.2,90.5,104.8,145.4,153.7
	c88.6,78.9,135.6,87.4,151.7,87.4h0.9c16.1,0,63.1-8.5,151.7-87.4c54.9-48.9,106.6-103.5,145.5-153.7
	c28.5-36.8,62.5-87.4,62.5-119.2S958.2,352.9,929.7,316.1z"/>
<path class="st0" d="M775.8,171.7C686.3,92,642.1,87.4,632.1,87.5c-10-0.1-54.2,4.5-143.7,84.2c-112,99.7-203.7,217.8-203.7,263.5
	S376.4,599,488.4,698.8c89.6,79.7,133.8,84.3,143.7,84.2c10,0.1,54.2-4.5,143.7-84.2C887.8,599,979.6,481,979.6,435.3
	S887.9,271.5,775.8,171.7z"/>
<path d="M509.7,653.5c-6.5,0-10.5-5-10.5-11.2s4.2-11.2,10.5-11.2s10.5,4.8,10.5,11.1S516.1,653.5,509.7,653.5z M509.7,635.2
	c-3.9,0-6.2,3.5-6.2,6.9c0,3.3,1.6,7.3,6.2,7.3s6.2-4,6.2-7.3C515.9,638.7,513.6,635.2,509.7,635.2z"/>
<path d="M525.9,639.1v7.5c0,1.6,0.3,3.5,2.3,3.5s2.2-1.9,2.2-3.5v-7.5h3.9v8.2c0,4-2.1,6.1-6.2,6.1c-4.1,0-6.2-2.1-6.2-6.1v-8.1
	L525.9,639.1z"/>
<path d="M546.3,651.6L546.3,651.6c-1,1.1-2.3,1.8-3.8,1.7c-4,0-6.4-3.7-6.4-7.4s2.3-7.3,6.3-7.3c1.5,0,2.8,0.6,3.8,1.7h0.1V629h3.9
	v23.9h-3.9V651.6L546.3,651.6z M546.7,646c0-1.9-1.2-3.9-3.3-3.9s-3.3,2-3.3,3.9s1.2,3.9,3.3,3.9C545.4,649.9,546.7,647.8,546.7,646
	L546.7,646z"/>
<path d="M559.7,642.3v3.2h-6.9v-3.2H559.7z"/>
<path d="M574.2,640v-8.4h4.1v21.2h-4.1v-9.5h-7.7v9.5h-4.1v-21.2h4.1v8.4L574.2,640z"/>
<path d="M584.5,646.6c0,1.7,0.7,3.7,2.7,3.7c1.2,0,2.2-0.8,2.6-1.9l3.6,0.6c-0.9,2.7-3.5,4.4-6.3,4.3c-4.3,0-6.9-3-6.9-7.2
	s2.2-7.5,6.7-7.5c4.5,0,6.6,3.3,6.6,7.5v0.5L584.5,646.6z M589.8,644.2c-0.2-1.4-1.1-2.8-2.6-2.8c-1.5,0-2.4,1.3-2.6,2.8H589.8z"/>
<path d="M601,646.9l2.9-7.8h4.3l-6.4,14.1h-2l-6.3-14.1h4.3L601,646.9z"/>
<path d="M612.3,646.6c0,1.7,0.7,3.7,2.7,3.7c1.2,0,2.2-0.8,2.6-1.9l3.6,0.6c-0.9,2.7-3.5,4.4-6.3,4.3c-4.3,0-6.9-3-6.9-7.2
	s2.2-7.5,6.7-7.5c4.5,0,6.6,3.3,6.6,7.5v0.5L612.3,646.6z M617.7,644.2c-0.2-1.4-1.1-2.8-2.6-2.8c-1.5,0-2.5,1.3-2.6,2.8H617.7z"/>
<path d="M627.2,640.5L627.2,640.5c0.8-1.2,2.1-1.9,3.5-1.9c0.6,0,1.1,0.1,1.6,0.3l-0.5,3.7c-0.5-0.3-1-0.5-1.6-0.5
	c-2.7,0-3,2.4-3,4.6v6.2h-3.9v-13.8h3.9L627.2,640.5L627.2,640.5z"/>
<path d="M637.5,652.9h-3.9V629h3.9V652.9z"/>
<path d="M643.5,646.6c0,1.7,0.7,3.7,2.7,3.7c1.2,0,2.2-0.8,2.7-1.9l3.6,0.6c-0.9,2.7-3.5,4.4-6.3,4.3c-4.3,0-6.9-3-6.9-7.2
	s2.2-7.5,6.7-7.5c4.5,0,6.5,3.3,6.5,7.5v0.5L643.5,646.6z M648.8,644.2c-0.2-1.4-1.1-2.8-2.6-2.8c-1.5,0-2.5,1.3-2.6,2.8H648.8z"/>
<path d="M657.6,646.6c0,1.7,0.7,3.7,2.7,3.7c1.2,0,2.2-0.8,2.6-1.9l3.6,0.6c-0.9,2.7-3.5,4.4-6.3,4.3c-4.3,0-6.9-3-6.9-7.2
	s2.2-7.5,6.7-7.5c4.5,0,6.6,3.3,6.6,7.5v0.5L657.6,646.6z M662.9,644.2c-0.2-1.4-1.1-2.8-2.6-2.8c-1.5,0-2.5,1.3-2.7,2.8H662.9z"/>
<path d="M680.9,649.3h5.9v3.6h-10v-21.2h4.1L680.9,649.3z"/>
<path d="M691.1,646.6c0,1.7,0.7,3.7,2.7,3.7c1.2,0,2.2-0.8,2.6-1.9l3.6,0.6c-0.9,2.7-3.5,4.4-6.3,4.3c-4.3,0-6.9-3-6.9-7.2
	s2.2-7.5,6.7-7.5c4.5,0,6.6,3.3,6.6,7.5v0.5L691.1,646.6z M696.5,644.2c-0.2-1.4-1.1-2.8-2.6-2.8c-1.5,0-2.5,1.3-2.6,2.8H696.5z"/>
<path d="M705.9,639.1v7.5c0,1.6,0.2,3.5,2.2,3.5s2.2-1.9,2.2-3.5v-7.5h3.9v8.2c0,4-2.1,6.1-6.2,6.1c-4.1,0-6.2-2.1-6.2-6.1v-8.1
	L705.9,639.1z"/>
<path d="M722.8,646.9l2.8-7.8h4.3l-6.4,14.1h-2l-6.3-14.1h4.3L722.8,646.9z"/>
<path d="M734,646.6c0,1.7,0.7,3.7,2.7,3.7c1.2,0,2.2-0.8,2.7-1.9l3.6,0.6c-0.9,2.7-3.5,4.4-6.3,4.3c-4.3,0-6.9-3-6.9-7.2
	s2.2-7.5,6.7-7.5c4.5,0,6.6,3.3,6.6,7.5v0.5L734,646.6z M739.4,644.2c-0.2-1.4-1.1-2.8-2.6-2.8c-1.5,0-2.5,1.3-2.7,2.8H739.4z"/>
<path d="M748.9,640.3L748.9,640.3c0.9-1.2,2.2-1.8,3.7-1.7c3.7,0,4.8,2.6,4.8,5.8v8.5h-4v-7.3c0-1.7,0.1-3.8-2.1-3.8
	c-2.2,0-2.4,2.6-2.4,4.3v6.8h-3.9v-13.8h3.9L748.9,640.3L748.9,640.3z"/>
<path d="M532.7,510.3c-17.4,0-32.4,6-43.3,17.2c-10.6,10.9-16.4,26-16.4,42.6c0,35.4,24.6,60.1,59.7,60.1s59.7-24.7,59.7-60.1
	c0-16.6-5.8-31.7-16.4-42.6C565.1,516.3,550.1,510.3,532.7,510.3z M532.7,606.9c-23.5,0-34-18.9-34-37.6c0-17.2,11.9-35.6,34-35.6
	c22.1,0,34,18.3,34,35.6C566.6,588,556.1,606.9,532.7,606.9z"/>
<path d="M664.3,513.3v44.2h-41.1v-44.2h-25v114h25v-50.1h41.1v50.1h25v-114L664.3,513.3L664.3,513.3z"/>
<path d="M725.6,606.4v-93.1h-25v113.9h57.8v-20.8H725.6z"/>
<path d="M743.4,524.9c0-5.8,4.7-10.5,10.5-10.5s10.5,4.7,10.5,10.5s-4.7,10.5-10.5,10.5l0,0c-5.8,0-10.5-4.6-10.5-10.4
	C743.4,525,743.4,525,743.4,524.9z M745.7,524.9c0,4.5,3.7,8.2,8.2,8.2s8.2-3.7,8.2-8.2c0-4.5-3.7-8.2-8.2-8.2
	c-4.5,0-8.2,3.6-8.2,8.1C745.7,524.8,745.7,524.9,745.7,524.9L745.7,524.9z M758.9,530.3h-2.5l-2.6-4.3h-1.9v4.3h-2.3v-10.9h5.3
	c2.5,0,4.3,0.5,4.3,3.3c0.2,1.6-0.9,3-2.5,3.2c-0.2,0-0.3,0-0.5,0L758.9,530.3z M755,524c1.2,0,2-0.3,2-1.5s-1.5-1.2-2.5-1.2h-2.5
	v2.7H755z"/>
<circle class="st1" cx="572.5" cy="281.1" r="23.3"/>
<path class="st2" d="M719.1,396.1c-8.5,0-142.5,61.2-223.6,84.6c-1.5,0.4-4.9,2.7-4.9,3.6s4.2,1.8,9.4,1.8
	c55.2,0,235.2-29,235.2-70.4C735.1,404.9,728,396.1,719.1,396.1z"/>
<path d="M650.1,221.1c0-2.2-0.9-4-1.9-4c-6.8,0-17.3,11.2-22.1,20.9c-61.5,123.2-88.6,175.6-88.6,187.6c0,10.8,8,19.6,17.8,19.6
	C593.3,446.2,650.1,260.3,650.1,221.1z"/>
<path class="st3" d="M472.4,308.7c-11.2,0-20.3,9.1-20.3,20.3c0,0,0,0,0,0c0,11.4,9.2,19.4,20.5,20.5
	c200.1,19.6,339.6,66,339.6,58.2c0-13-161.4-99.5-324-99.5C479.5,308.4,472.6,308.7,472.4,308.7z"/>
</svg>
