<?xml version="1.0" encoding="utf-8"?>
<svg version="1.0" width="1144.000000pt" height="1280.000000pt" viewBox="0 0 1144.000000 1280.000000" preserveAspectRatio="xMidYMid meet" xmlns="http://www.w3.org/2000/svg">
  <defs>
    <linearGradient gradientUnits="userSpaceOnUse" x1="16922.051" y1="8602.362" x2="16922.051" y2="24626.191" id="gradient-11">
      <stop offset="0" style="stop-color: rgb(80.392% 49.804% 19.608%)"/>
      <stop offset="1" style="stop-color: rgb(52.139% 26.393% 0%)"/>
    </linearGradient>
    <linearGradient gradientUnits="userSpaceOnUse" x1="13259.052" y1="21130" x2="13259.052" y2="22305.484" id="gradient-12">
      <stop offset="0" style="stop-color: rgb(80.392% 49.804% 19.608%)"/>
      <stop offset="1" style="stop-color: rgb(52.139% 26.393% 0%)"/>
    </linearGradient>
    <linearGradient gradientUnits="userSpaceOnUse" x1="10587.25" y1="20178" x2="10587.25" y2="22090" id="gradient-13">
      <stop offset="0" style="stop-color: rgb(80.392% 49.804% 19.608%)"/>
      <stop offset="1" style="stop-color: rgb(52.139% 26.393% 0%)"/>
    </linearGradient>
    <linearGradient gradientUnits="userSpaceOnUse" x1="14500.053" y1="19146.756" x2="14500.053" y2="21319.004" id="gradient-14">
      <stop offset="0" style="stop-color: rgb(80.392% 49.804% 19.608%)"/>
      <stop offset="1" style="stop-color: rgb(52.139% 26.393% 0%)"/>
    </linearGradient>
    <linearGradient gradientUnits="userSpaceOnUse" x1="10872.444" y1="17560" x2="10872.444" y2="19985.832" id="gradient-15">
      <stop offset="0" style="stop-color: rgb(80.392% 49.804% 19.608%)"/>
      <stop offset="1" style="stop-color: rgb(52.139% 26.393% 0%)"/>
    </linearGradient>
    <linearGradient gradientUnits="userSpaceOnUse" x1="15911.307" y1="18422.092" x2="15911.307" y2="19659.689" id="gradient-16">
      <stop offset="0" style="stop-color: rgb(80.392% 49.804% 19.608%)"/>
      <stop offset="1" style="stop-color: rgb(52.139% 26.393% 0%)"/>
    </linearGradient>
    <linearGradient gradientUnits="userSpaceOnUse" x1="13345.33" y1="17064.229" x2="13345.33" y2="19490.336" id="gradient-17">
      <stop offset="0" style="stop-color: rgb(80.392% 49.804% 19.608%)"/>
      <stop offset="1" style="stop-color: rgb(52.139% 26.393% 0%)"/>
    </linearGradient>
    <linearGradient gradientUnits="userSpaceOnUse" x1="9967.901" y1="15969.264" x2="9967.901" y2="18551.844" id="gradient-18">
      <stop offset="0" style="stop-color: rgb(80.392% 49.804% 19.608%)"/>
      <stop offset="1" style="stop-color: rgb(52.139% 26.393% 0%)"/>
    </linearGradient>
    <linearGradient gradientUnits="userSpaceOnUse" x1="15659.329" y1="16634.795" x2="15659.329" y2="17790.922" id="gradient-19">
      <stop offset="0" style="stop-color: rgb(80.392% 49.804% 19.608%)"/>
      <stop offset="1" style="stop-color: rgb(52.139% 26.393% 0%)"/>
    </linearGradient>
    <linearGradient gradientUnits="userSpaceOnUse" x1="13727.266" y1="15249" x2="13727.266" y2="17151.021" id="gradient-20">
      <stop offset="0" style="stop-color: rgb(80.392% 49.804% 19.608%)"/>
      <stop offset="1" style="stop-color: rgb(52.139% 26.393% 0%)"/>
    </linearGradient>
    <linearGradient gradientUnits="userSpaceOnUse" x1="11595.5" y1="15237" x2="11595.5" y2="15964.088" id="gradient-21">
      <stop offset="0" style="stop-color: rgb(80.392% 49.804% 19.608%)"/>
      <stop offset="1" style="stop-color: rgb(52.139% 26.393% 0%)"/>
    </linearGradient>
    <linearGradient gradientUnits="userSpaceOnUse" x1="19416.073" y1="8415.008" x2="19416.073" y2="13859.003" id="gradient-22">
      <stop offset="0" style="stop-color: rgb(80.392% 49.804% 19.608%)"/>
      <stop offset="1" style="stop-color: rgb(52.139% 26.393% 0%)"/>
    </linearGradient>
  </defs>
  <g transform="matrix(0.08719, 0, 0, -0.096562, 13.563953, 1269.034443)" fill="#000000" stroke="none" style="">
    <path d="M5575 12659 c-541 -15 -721 -16 -1165 -7 -289 5 -1332 12 -2318 15 l-1792 5 56 -118 c289 -610 470 -1230 550 -1884 22 -181 30 -639 14 -812 -36 -409 -101 -735 -414 -2088 -127 -552 -168 -735 -240 -1085 -330 -1604 -351 -2539 -70 -3097 82 -164 361 -481 609 -696 393 -339 882 -646 1560 -982 508 -251 816 -386 1690 -737 281 -113 589 -238 685 -279 401 -169 992 -484 1533 -816 l127 -78 128 78 c486 299 1077 618 1437 776 61 27 376 155 700 286 971 392 1254 515 1770 770 838 415 1383 782 1810 1221 282 290 400 481 473 766 150 584 94 1438 -184 2788 -72 350 -113 533 -240 1085 -313 1353 -378 1679 -414 2088 -16 173 -8 631 14 812 80 654 261 1274 550 1883 l55 117 -1292 0 c-711 0 -1535 -5 -1832 -11 -792 -15 -1524 -14 -2270 5 -761 18 -695 19 -1530 -5z" style="fill: rgb(205, 127, 50);"/>
  </g>
  <g transform="matrix(0.038508, 0, 0, -0.042488, -62.854875, 1292.714497)" fill="#000000" stroke="none" style="">
    <path d="M12825 24619 c-491 -63 -871 -443 -941 -939 -11 -81 -14 -208 -14 -557 2 -513 -9 -462 91 -443 30 6 117 17 194 26 595 63 1219 -11 1769 -210 l99 -36 1421 -1 c1409 -1 1548 -4 1761 -34 1193 -170 2183 -1048 2500 -2215 152 -562 138 -1171 -41 -1725 -355 -1097 -1323 -1918 -2449 -2075 -44 -6 -91 -14 -105 -17 -14 -3 -277 -8 -584 -12 l-559 -6 -55 -95 c-86 -151 -251 -393 -368 -540 -135 -169 -469 -504 -634 -636 -457 -364 -969 -629 -1497 -774 -469 -129 -881 -172 -1390 -148 l-153 8 1 -2278 c0 -1349 4 -2308 10 -2352 20 -162 89 -347 180 -482 59 -87 188 -218 276 -279 213 -147 481 -218 725 -191 482 53 861 395 959 867 18 86 19 185 19 2413 l0 2322 1493 1 c820 0 1521 2 1557 5 1123 73 2156 486 3030 1213 142 118 517 491 629 626 296 356 516 696 712 1099 271 560 427 1109 496 1751 12 114 17 250 17 470 1 340 -5 463 -35 695 -180 1416 -918 2673 -2074 3535 -674 503 -1515 850 -2350 969 -358 51 -269 49 -2520 52 -1193 1 -2130 -2 -2170 -7z" style="fill-rule: nonzero; fill: url('#gradient-11');"/>
    <path d="M12290 22303 c-73 -7 -276 -34 -296 -38 -46 -10 -58 -188 -19 -300 29 -87 150 -326 212 -420 111 -168 225 -278 358 -345 99 -50 195 -70 333 -70 248 0 490 62 967 245 105 40 258 99 340 130 171 66 316 134 360 169 36 29 43 21 -110 117 -389 243 -910 430 -1365 489 -47 6 -98 14 -115 17 -35 6 -613 12 -665 6z" style="fill: url('#gradient-12');"/>
    <path d="M11255 22058 c-212 -85 -525 -257 -730 -402 -228 -162 -566 -484 -729 -696 -170 -221 -342 -496 -331 -531 13 -41 129 -140 210 -179 116 -56 190 -72 325 -72 407 2 990 180 1340 411 47 30 128 98 180 151 145 145 190 247 190 432 0 283 -81 568 -212 743 -50 68 -147 175 -157 175 -3 -1 -42 -15 -86 -32z" style="fill: url('#gradient-13');"/>
    <path d="M14885 21274 c-775 -230 -1169 -392 -1378 -567 -56 -46 -131 -148 -151 -203 -47 -134 -18 -265 97 -437 205 -307 807 -745 1196 -871 282 -91 493 -56 635 106 124 141 270 448 336 704 43 165 57 363 36 496 -11 71 -190 343 -350 533 -77 92 -257 285 -265 284 -3 0 -73 -21 -156 -45z" style="fill: url('#gradient-14');"/>
    <path d="M10794 19980 c-422 -48 -765 -236 -892 -490 -70 -140 -85 -215 -85 -420 -1 -143 3 -194 21 -278 53 -243 102 -355 238 -537 126 -168 373 -416 502 -504 189 -128 365 -191 537 -191 266 0 448 133 596 435 112 230 190 571 215 935 18 272 -84 528 -294 737 -233 231 -543 347 -838 313z" style="fill: url('#gradient-15');"/>
    <path d="M15937 19578 c-92 -128 -181 -309 -213 -433 -29 -114 -35 -267 -14 -357 31 -133 122 -258 228 -312 48 -25 162 -60 169 -53 9 9 22 356 17 457 -7 159 -32 394 -54 514 -24 129 -50 247 -59 264 -5 9 -30 -18 -74 -80z" style="fill: url('#gradient-16');"/>
    <path d="M12930 19474 c-212 -55 -394 -223 -525 -484 -131 -261 -209 -605 -221 -975 -7 -206 7 -322 55 -463 39 -112 83 -184 166 -267 85 -85 170 -136 290 -174 122 -39 214 -50 380 -46 160 4 310 29 494 81 468 133 767 352 880 644 51 131 64 223 58 399 -6 178 -19 234 -81 366 -111 232 -346 476 -656 680 -313 205 -628 295 -840 239z" style="fill: url('#gradient-17');"/>
    <path d="M9185 18545 c-38 -10 -60 -24 -91 -58 l-41 -45 13 -104 c55 -455 208 -918 432 -1313 198 -349 495 -705 801 -961 139 -117 124 -113 236 -56 99 52 221 174 269 271 100 198 105 432 14 616 -80 163 -203 284 -618 611 -397 312 -456 379 -780 885 -93 146 -141 177 -235 154z" style="fill: url('#gradient-18');"/>
    <path d="M15739 17767 c-166 -57 -300 -233 -366 -483 -43 -167 -41 -410 7 -597 7 -26 16 -49 20 -52 12 -8 166 220 262 388 48 83 117 218 153 300 73 164 168 434 161 454 -9 23 -160 16 -237 -10z" style="fill: url('#gradient-19');"/>
    <path d="M14500 17127 c-30 -13 -104 -56 -165 -96 -314 -205 -702 -350 -1106 -411 -179 -28 -264 -52 -387 -111 -313 -151 -416 -429 -272 -737 62 -133 208 -328 348 -465 l59 -58 84 11 c207 28 483 94 684 163 198 68 520 220 653 308 139 91 321 298 415 471 204 376 174 803 -66 922 -69 35 -168 36 -247 3z" style="fill: url('#gradient-20');"/>
    <path d="M11417 15958 c-168 -20 -373 -125 -501 -257 l-39 -40 110 -55 c310 -155 661 -271 988 -325 121 -20 156 -25 275 -37 l64 -7 -25 34 c-14 19 -78 106 -141 194 -148 204 -240 309 -331 378 -143 108 -234 135 -400 115z" style="fill: url('#gradient-21');"/>
    <path d="M18545 13844 c-344 -45 -1133 -69 -1995 -60 -349 4 -687 9 -750 12 l-115 5 2015 -2014 c1108 -1108 2076 -2068 2150 -2133 886 -783 1615 -1202 2155 -1238 96 -6 276 16 371 45 105 32 242 101 330 167 526 391 592 1144 142 1618 -148 156 -314 252 -531 309 -65 16 -114 39 -190 84 -192 116 -468 324 -762 575 -86 73 -629 608 -1405 1383 -1035 1033 -1270 1263 -1290 1262 -14 -1 -70 -8 -125 -15z" style="fill: url('#gradient-22');"/>
  </g>
</svg>