<?xml version="1.0" encoding="utf-8"?>
<svg version="1.0" width="1144.000000pt" height="1280.000000pt" viewBox="0 0 1144.000000 1280.000000" preserveAspectRatio="xMidYMid meet" xmlns="http://www.w3.org/2000/svg">
  <defs>
    <linearGradient gradientUnits="userSpaceOnUse" x1="16922.051" y1="8602.362" x2="16922.051" y2="24626.191" id="gradient-0">
      <stop offset="0" style="stop-color: rgb(100% 84.706% 0%)"/>
      <stop offset="1" style="stop-color: rgb(57.92% 48.259% 0%)"/>
    </linearGradient>
    <linearGradient gradientUnits="userSpaceOnUse" x1="19416.073" y1="8415.008" x2="19416.073" y2="13859.003" id="gradient-1">
      <stop offset="0" style="stop-color: rgb(100% 84.706% 0%)"/>
      <stop offset="1" style="stop-color: rgb(57.92% 48.259% 0%)"/>
    </linearGradient>
    <linearGradient gradientUnits="userSpaceOnUse" x1="10872.444" y1="17560" x2="10872.444" y2="19985.832" id="gradient-6">
      <stop offset="0" style="stop-color: rgb(100% 84.706% 0%)"/>
      <stop offset="1" style="stop-color: rgb(57.92% 48.259% 0%)"/>
    </linearGradient>
    <linearGradient gradientUnits="userSpaceOnUse" x1="10587.25" y1="20178" x2="10587.25" y2="22090" id="gradient-3">
      <stop offset="0" style="stop-color: rgb(100% 84.706% 0%)"/>
      <stop offset="1" style="stop-color: rgb(57.92% 48.259% 0%)"/>
    </linearGradient>
    <linearGradient gradientUnits="userSpaceOnUse" x1="13259.052" y1="21130" x2="13259.052" y2="22305.484" id="gradient-4">
      <stop offset="0" style="stop-color: rgb(100% 84.706% 0%)"/>
      <stop offset="1" style="stop-color: rgb(57.92% 48.259% 0%)"/>
    </linearGradient>
    <linearGradient gradientUnits="userSpaceOnUse" x1="14500.053" y1="19146.756" x2="14500.053" y2="21319.004" id="gradient-2">
      <stop offset="0" style="stop-color: rgb(100% 84.706% 0%)"/>
      <stop offset="1" style="stop-color: rgb(57.92% 48.259% 0%)"/>
    </linearGradient>
    <linearGradient gradientUnits="userSpaceOnUse" x1="13345.33" y1="17064.229" x2="13345.33" y2="19490.336" id="gradient-5">
      <stop offset="0" style="stop-color: rgb(100% 84.706% 0%)"/>
      <stop offset="1" style="stop-color: rgb(57.92% 48.259% 0%)"/>
    </linearGradient>
    <linearGradient gradientUnits="userSpaceOnUse" x1="15659.329" y1="16634.795" x2="15659.329" y2="17790.922" id="gradient-7">
      <stop offset="0" style="stop-color: rgb(100% 84.706% 0%)"/>
      <stop offset="1" style="stop-color: rgb(57.92% 48.259% 0%)"/>
    </linearGradient>
    <linearGradient gradientUnits="userSpaceOnUse" x1="13727.266" y1="15249" x2="13727.266" y2="17151.021" id="gradient-8">
      <stop offset="0" style="stop-color: rgb(100% 84.706% 0%)"/>
      <stop offset="1" style="stop-color: rgb(57.92% 48.259% 0%)"/>
    </linearGradient>
    <linearGradient gradientUnits="userSpaceOnUse" x1="11595.5" y1="15237" x2="11595.5" y2="15964.088" id="gradient-9">
      <stop offset="0" style="stop-color: rgb(100% 84.706% 0%)"/>
      <stop offset="1" style="stop-color: rgb(57.92% 48.259% 0%)"/>
    </linearGradient>
    <linearGradient gradientUnits="userSpaceOnUse" x1="9967.901" y1="15969.264" x2="9967.901" y2="18551.844" id="gradient-10">
      <stop offset="0" style="stop-color: rgb(100% 84.706% 0%)"/>
      <stop offset="1" style="stop-color: rgb(57.92% 48.259% 0%)"/>
    </linearGradient>
  </defs>
  <g transform="matrix(0.1, 0, 0, -0.1, 1584.781518, 2048.535919)" fill="#000000" stroke="none">
    <path d="M -10806.443 20443.812 C -12089.443 20400.812 -13438.443 20199.812 -14896.443 19833.812 C -15159.443 19768.812 -15622.443 19644.812 -15726.443 19612.812 C -15743.443 19607.812 -15777.443 19511.812 -15763.443 19506.812 C -15758.443 19505.812 -15759.443 19428.812 -15765.443 19319.812 C -15806.443 18632.812 -15799.443 17862.812 -15745.443 17204.812 C -15684.443 16446.812 -15564.443 15707.812 -15385.443 14994.812 C -15337.443 14800.812 -15244.443 14460.812 -15226.443 14409.812 C -15221.443 14395.812 -15203.443 14337.812 -15186.443 14279.812 C -15140.443 14126.812 -15032.443 13804.812 -14974.443 13649.812 C -14838.443 13285.812 -14650.443 12845.812 -14633.443 12856.812 C -14627.443 12860.812 -14626.443 12857.812 -14631.443 12849.812 C -14640.443 12835.812 -14587.443 12717.812 -14574.443 12725.812 C -14570.443 12728.812 -14569.443 12724.812 -14572.443 12716.812 C -14578.443 12698.812 -14378.443 12297.812 -14226.443 12024.812 C -13991.443 11602.812 -13682.443 11120.812 -13406.443 10744.812 C -12689.443 9769.812 -11778.443 8870.812 -10761.443 8133.812 C -10552.443 7982.812 -10207.443 7749.812 -10169.443 7733.812 C -10107.443 7706.812 -10056.443 7728.812 -9848.443 7868.812 C -9661.443 7995.812 -9381.443 8195.812 -9256.443 8292.812 C -8696.443 8727.812 -8368.443 9017.812 -7911.443 9480.812 C -7224.443 10177.812 -6687.443 10868.812 -6197.443 11688.812 C -5147.443 13441.812 -4568.443 15431.812 -4456.443 17668.812 C -4428.443 18222.812 -4458.443 19564.812 -4498.443 19605.812 C -4505.443 19611.812 -5117.443 19764.812 -5391.443 19827.812 C -6467.443 20078.812 -7564.443 20268.812 -8395.443 20349.812 C -8451.443 20355.812 -8540.443 20363.812 -8593.443 20368.812 C -9157.443 20423.812 -9487.443 20439.812 -10126.443 20443.812 C -10442.443 20445.812 -10748.443 20445.812 -10806.443 20443.812 Z M -12945.443 10212.812 C -12932.443 10196.812 -12933.443 10195.812 -12948.443 10208.812 C -12965.443 10221.812 -12970.443 10229.812 -12962.443 10229.812 C -12960.443 10229.812 -12952.443 10221.812 -12945.443 10212.812 Z M -12825.443 10072.812 C -12812.443 10056.812 -12813.443 10055.812 -12828.443 10068.812 C -12845.443 10081.812 -12850.443 10089.812 -12842.443 10089.812 C -12840.443 10089.812 -12832.443 10081.812 -12825.443 10072.812 Z M -12755.443 9992.812 C -12742.443 9976.812 -12743.443 9975.812 -12758.443 9988.812 C -12775.443 10001.812 -12780.443 10009.812 -12772.443 10009.812 C -12770.443 10009.812 -12762.443 10001.812 -12755.443 9992.812 Z M -12676.443 9904.812 C -12663.443 9890.812 -12655.443 9879.812 -12658.443 9879.812 C -12660.443 9879.812 -12673.443 9890.812 -12686.443 9904.812 C -12699.443 9918.812 -12707.443 9929.812 -12704.443 9929.812 C -12702.443 9929.812 -12689.443 9918.812 -12676.443 9904.812 Z M -12560.443 9777.812 L -12531.443 9744.812 L -12563.443 9773.812 C -12594.443 9801.812 -12601.443 9809.812 -12593.443 9809.812 C -12591.443 9809.812 -12577.443 9794.812 -12560.443 9777.812 Z M -12396.443 9604.812 C -12361.443 9568.812 -12334.443 9539.812 -12337.443 9539.812 C -12339.443 9539.812 -12371.443 9568.812 -12406.443 9604.812 C -12441.443 9640.812 -12468.443 9669.812 -12465.443 9669.812 C -12463.443 9669.812 -12431.443 9640.812 -12396.443 9604.812 Z M -12066.443 9274.812 C -12031.443 9238.812 -12004.443 9209.812 -12007.443 9209.812 C -12009.443 9209.812 -12041.443 9238.812 -12076.443 9274.812 C -12111.443 9310.812 -12138.443 9339.812 -12135.443 9339.812 C -12133.443 9339.812 -12101.443 9310.812 -12066.443 9274.812 Z M -11896.443 9114.812 C -11877.443 9095.812 -11864.443 9079.812 -11867.443 9079.812 C -11870.443 9079.812 -11887.443 9095.812 -11906.443 9114.812 C -11925.443 9133.812 -11938.443 9149.812 -11935.443 9149.812 C -11932.443 9149.812 -11915.443 9133.812 -11896.443 9114.812 Z M -11766.443 8994.812 C -11753.443 8980.812 -11745.443 8969.812 -11748.443 8969.812 C -11750.443 8969.812 -11763.443 8980.812 -11776.443 8994.812 C -11789.443 9008.812 -11797.443 9019.812 -11794.443 9019.812 C -11792.443 9019.812 -11779.443 9008.812 -11766.443 8994.812 Z M -11585.443 8832.812 C -11572.443 8816.812 -11573.443 8815.812 -11588.443 8828.812 C -11598.443 8835.812 -11606.443 8843.812 -11606.443 8845.812 C -11606.443 8853.812 -11598.443 8848.812 -11585.443 8832.812 Z M -11445.443 8712.812 C -11432.443 8696.812 -11433.443 8695.812 -11448.443 8708.812 C -11458.443 8715.812 -11466.443 8723.812 -11466.443 8725.812 C -11466.443 8733.812 -11458.443 8728.812 -11445.443 8712.812 Z" style="fill: rgb(255, 216, 0);"/>
  </g>
  <g transform="matrix(0.038508, 0, 0, -0.042488, -75.71853, 1280.528461)" fill="#000000" stroke="none" style="">
    <path d="M12825 24619 c-491 -63 -871 -443 -941 -939 -11 -81 -14 -208 -14 -557 2 -513 -9 -462 91 -443 30 6 117 17 194 26 595 63 1219 -11 1769 -210 l99 -36 1421 -1 c1409 -1 1548 -4 1761 -34 1193 -170 2183 -1048 2500 -2215 152 -562 138 -1171 -41 -1725 -355 -1097 -1323 -1918 -2449 -2075 -44 -6 -91 -14 -105 -17 -14 -3 -277 -8 -584 -12 l-559 -6 -55 -95 c-86 -151 -251 -393 -368 -540 -135 -169 -469 -504 -634 -636 -457 -364 -969 -629 -1497 -774 -469 -129 -881 -172 -1390 -148 l-153 8 1 -2278 c0 -1349 4 -2308 10 -2352 20 -162 89 -347 180 -482 59 -87 188 -218 276 -279 213 -147 481 -218 725 -191 482 53 861 395 959 867 18 86 19 185 19 2413 l0 2322 1493 1 c820 0 1521 2 1557 5 1123 73 2156 486 3030 1213 142 118 517 491 629 626 296 356 516 696 712 1099 271 560 427 1109 496 1751 12 114 17 250 17 470 1 340 -5 463 -35 695 -180 1416 -918 2673 -2074 3535 -674 503 -1515 850 -2350 969 -358 51 -269 49 -2520 52 -1193 1 -2130 -2 -2170 -7z" style="fill-rule: nonzero; fill: url('#gradient-0');"/>
    <path d="M12290 22303 c-73 -7 -276 -34 -296 -38 -46 -10 -58 -188 -19 -300 29 -87 150 -326 212 -420 111 -168 225 -278 358 -345 99 -50 195 -70 333 -70 248 0 490 62 967 245 105 40 258 99 340 130 171 66 316 134 360 169 36 29 43 21 -110 117 -389 243 -910 430 -1365 489 -47 6 -98 14 -115 17 -35 6 -613 12 -665 6z" style="fill: url('#gradient-4');"/>
    <path d="M11255 22058 c-212 -85 -525 -257 -730 -402 -228 -162 -566 -484 -729 -696 -170 -221 -342 -496 -331 -531 13 -41 129 -140 210 -179 116 -56 190 -72 325 -72 407 2 990 180 1340 411 47 30 128 98 180 151 145 145 190 247 190 432 0 283 -81 568 -212 743 -50 68 -147 175 -157 175 -3 -1 -42 -15 -86 -32z" style="fill: url('#gradient-3');"/>
    <path d="M14885 21274 c-775 -230 -1169 -392 -1378 -567 -56 -46 -131 -148 -151 -203 -47 -134 -18 -265 97 -437 205 -307 807 -745 1196 -871 282 -91 493 -56 635 106 124 141 270 448 336 704 43 165 57 363 36 496 -11 71 -190 343 -350 533 -77 92 -257 285 -265 284 -3 0 -73 -21 -156 -45z" style="fill: url('#gradient-2');"/>
    <path d="M10794 19980 c-422 -48 -765 -236 -892 -490 -70 -140 -85 -215 -85 -420 -1 -143 3 -194 21 -278 53 -243 102 -355 238 -537 126 -168 373 -416 502 -504 189 -128 365 -191 537 -191 266 0 448 133 596 435 112 230 190 571 215 935 18 272 -84 528 -294 737 -233 231 -543 347 -838 313z" style="fill: url('#gradient-6');"/>
    <path d="M15937 19578 c-92 -128 -181 -309 -213 -433 -29 -114 -35 -267 -14 -357 31 -133 122 -258 228 -312 48 -25 162 -60 169 -53 9 9 22 356 17 457 -7 159 -32 394 -54 514 -24 129 -50 247 -59 264 -5 9 -30 -18 -74 -80z" style="fill: rgb(175, 149, 0);"/>
    <path d="M12930 19474 c-212 -55 -394 -223 -525 -484 -131 -261 -209 -605 -221 -975 -7 -206 7 -322 55 -463 39 -112 83 -184 166 -267 85 -85 170 -136 290 -174 122 -39 214 -50 380 -46 160 4 310 29 494 81 468 133 767 352 880 644 51 131 64 223 58 399 -6 178 -19 234 -81 366 -111 232 -346 476 -656 680 -313 205 -628 295 -840 239z" style="fill: url('#gradient-5');"/>
    <path d="M9185 18545 c-38 -10 -60 -24 -91 -58 l-41 -45 13 -104 c55 -455 208 -918 432 -1313 198 -349 495 -705 801 -961 139 -117 124 -113 236 -56 99 52 221 174 269 271 100 198 105 432 14 616 -80 163 -203 284 -618 611 -397 312 -456 379 -780 885 -93 146 -141 177 -235 154z" style="fill: url('#gradient-10');"/>
    <path d="M15739 17767 c-166 -57 -300 -233 -366 -483 -43 -167 -41 -410 7 -597 7 -26 16 -49 20 -52 12 -8 166 220 262 388 48 83 117 218 153 300 73 164 168 434 161 454 -9 23 -160 16 -237 -10z" style="fill: url('#gradient-7');"/>
    <path d="M14500 17127 c-30 -13 -104 -56 -165 -96 -314 -205 -702 -350 -1106 -411 -179 -28 -264 -52 -387 -111 -313 -151 -416 -429 -272 -737 62 -133 208 -328 348 -465 l59 -58 84 11 c207 28 483 94 684 163 198 68 520 220 653 308 139 91 321 298 415 471 204 376 174 803 -66 922 -69 35 -168 36 -247 3z" style="fill: url('#gradient-8');"/>
    <path d="M11417 15958 c-168 -20 -373 -125 -501 -257 l-39 -40 110 -55 c310 -155 661 -271 988 -325 121 -20 156 -25 275 -37 l64 -7 -25 34 c-14 19 -78 106 -141 194 -148 204 -240 309 -331 378 -143 108 -234 135 -400 115z" style="fill: url('#gradient-9');"/>
    <path d="M18545 13844 c-344 -45 -1133 -69 -1995 -60 -349 4 -687 9 -750 12 l-115 5 2015 -2014 c1108 -1108 2076 -2068 2150 -2133 886 -783 1615 -1202 2155 -1238 96 -6 276 16 371 45 105 32 242 101 330 167 526 391 592 1144 142 1618 -148 156 -314 252 -531 309 -65 16 -114 39 -190 84 -192 116 -468 324 -762 575 -86 73 -629 608 -1405 1383 -1035 1033 -1270 1263 -1290 1262 -14 -1 -70 -8 -125 -15z" style="fill: url('#gradient-1');"/>
  </g>
  <g transform="matrix(0.1, 0, 0, -0.1, 1321.20461, 1326.627461)" fill="#000000" stroke="none"/>
</svg>